<?xml version="1.0" encoding="iso-8859-1"?>
<!-- Generator: Adobe Illustrator 16.0.0, SVG Export Plug-In . SVG Version: 6.00 Build 0)  -->
<!DOCTYPE svg PUBLIC "-//W3C//DTD SVG 1.1//EN" "http://www.w3.org/Graphics/SVG/1.1/DTD/svg11.dtd">
<svg version="1.1" id="Capa_1" xmlns="http://www.w3.org/2000/svg" xmlns:xlink="http://www.w3.org/1999/xlink" x="0px" y="0px"
	 width="563.143px" height="563.143px" viewBox="0 0 563.143 563.143" style="enable-background:new 0 0 563.143 563.143;"
	 xml:space="preserve">
<g>
	<g>
		<path d="M104.419,215.721c-5.465,4.015-9.162,7.362-9.7,8.439c-1.206,2.405-2.876,15.368-2.558,19.817
			c0.165,2.344,4.284,3.53,12.24,3.537l0.037,3.06v-3.06c7.956-0.007,12.075-1.193,12.24-3.544
			c0.318-4.449-1.359-17.411-2.558-19.811C113.513,222.961,109.26,219.283,104.419,215.721z"/>
		<path d="M85.374,195.421c-2.136-1.064-13.122-2.595-18.66-2.595c-0.44,0-0.826,0.012-1.157,0.037
			c-2.35,0.165-3.543,4.277-3.549,12.233c0.006,7.999,1.193,12.111,3.543,12.276c0.336,0.024,0.728,0.037,1.169,0.037
			c5.539,0,16.524-1.523,18.647-2.595c1.083-0.539,4.431-4.235,8.439-9.694C89.792,199.649,86.451,195.96,85.374,195.421z"/>
		<path d="M143.275,192.863c-4.578-0.355-17.509,1.401-19.817,2.558c-1.077,0.539-4.431,4.241-8.445,9.7
			c3.219,4.388,7.111,9.033,8.439,9.694c2.13,1.071,13.109,2.595,18.654,2.595c0.44,0,0.832-0.013,1.157-0.037
			c2.35-0.165,3.543-4.277,3.549-12.233c0-0.208,0.024-0.44,0.061-0.643C146.812,197.146,145.619,193.028,143.275,192.863z"/>
		<path d="M281.066,243.334c-17.032,0-30.894,13.862-30.894,30.895c0,17.031,13.862,30.894,30.894,30.894
			c17.032,0,30.894-13.862,30.894-30.894C311.96,257.196,298.099,243.334,281.066,243.334z M273.135,285.844
			c-0.012,0.215-0.446,0.532-0.716,0.582c-4.877,0.813-9.627,0.293-14.229-1.494c-0.398-0.152-0.765-0.392-1.114-0.636
			c-1.756-1.242-1.75-2.889,0.043-4.033c0.777-0.496,1.609-0.961,2.472-1.279c4.431-1.634,8.874-3.213,13.55-4.896
			c0,1.64,0.031,3.157-0.037,4.663c-0.012,0.208-0.49,0.465-0.796,0.575c-2.454,0.899-4.92,1.75-7.368,2.656
			c-0.569,0.208-1.083,0.557-1.628,0.845c0.012,0.135,0.024,0.275,0.03,0.41c0.539,0.189,1.09,0.562,1.61,0.526
			c1.518-0.104,3.042-0.282,4.522-0.612c1.2-0.27,2.338-0.802,3.69-1.285C273.172,283.298,273.202,284.577,273.135,285.844z
			 M283.104,259.92c-0.171,0.403-0.122,0.911-0.122,1.377c-0.007,9.485,0,18.978,0,28.464c0,0.453,0,0.899,0,1.523
			c-2.785-0.881-5.368-1.694-7.944-2.539c-0.202-0.067-0.385-0.386-0.447-0.624c-0.08-0.301-0.03-0.637-0.03-0.961
			c0.012-11.206,0.024-22.412,0.037-33.617c0-0.392,0-0.777,0-1.322c0.765,0.153,1.432,0.232,2.068,0.416
			c3.636,1.065,7.271,2.124,10.888,3.256c0.942,0.294,1.836,0.796,2.711,1.279c2.853,1.585,4.505,4.009,4.915,7.258
			c0.281,2.253,0.385,4.486-0.343,6.695c-1.23,3.722-4.664,4.774-8.274,3.055c-0.282-0.135-0.466-0.753-0.466-1.145
			c-0.036-3.795,0.013-7.589-0.042-11.384c-0.013-0.753-0.221-1.572-0.594-2.215c-0.227-0.386-0.974-0.691-1.433-0.631
			C283.661,258.837,283.288,259.473,283.104,259.92z M304.867,278.751c1.946,1.291,2.038,2.858,0.079,4.125
			c-1.211,0.789-2.595,1.364-3.959,1.866c-5.232,1.928-10.496,3.788-15.747,5.674c-0.227,0.079-0.471,0.128-0.881,0.238
			c0-1.555-0.043-2.95,0.036-4.333c0.019-0.287,0.466-0.673,0.79-0.789c3.794-1.39,7.606-2.729,11.413-4.095
			c0.502-0.178,1.028-0.337,1.494-0.594c0.281-0.152,0.465-0.478,0.691-0.729c-0.264-0.201-0.502-0.514-0.796-0.587
			c-1.683-0.423-3.342-0.215-4.957,0.349c-2.467,0.856-4.921,1.738-7.387,2.607c-0.361,0.128-0.729,0.238-1.273,0.41
			c0-1.671-0.024-3.188,0.031-4.713c0.006-0.202,0.379-0.496,0.636-0.575c6.444-2.032,12.815-1.965,19.082,0.722
			C304.384,278.438,304.629,278.592,304.867,278.751z"/>
		<path d="M165.441,162.024c2.717,0,4.927-2.21,4.927-4.927v-13.409c0-2.711-2.209-4.927-4.927-4.927s-4.927,2.21-4.927,4.927
			v13.409C160.515,159.814,162.724,162.024,165.441,162.024z"/>
		<path d="M104.413,194.521c4.847-3.562,9.094-7.24,9.7-8.445c1.206-2.412,2.876-15.368,2.558-19.805
			c-0.171-2.356-4.29-3.544-12.24-3.55c-7.993,0.006-12.111,1.193-12.277,3.544c-0.318,4.455,1.359,17.411,2.558,19.811
			C95.318,187.281,99.572,190.96,104.413,194.521z"/>
		<path d="M396.691,162.024c2.718,0,4.927-2.21,4.927-4.927v-13.409c0-2.711-2.209-4.927-4.927-4.927
			c-2.717,0-4.927,2.21-4.927,4.927v13.409C391.765,159.814,393.975,162.024,396.691,162.024z"/>
		<circle cx="456.576" cy="242.392" r="16.72"/>
		<circle cx="495.812" cy="203.157" r="16.72"/>
		<path d="M497.029,126.761c-1.273-1.952-3.752-3.599-7.026-4.97v-5.092c0,0-29.112-19.645-67.735-3.672
			c0,0-1.225,1.047-1.702,6.457c-2.43,0.544-4.541,1.156-6.254,1.848c-7.504,3.036-12.296,2.234-12.296,2.234h-26.132
			c0.948,2.031,1.518,4.271,1.518,6.658v80.857c0,8.733-7.105,15.839-15.839,15.839H200.576c-8.733,0-15.838-7.105-15.838-15.839
			v-80.857c0-2.387,0.569-4.627,1.518-6.658h-25.128c0,0-4.792,0.795-12.295-2.234c-1.72-0.691-3.825-1.31-6.254-1.848
			c-0.478-5.41-1.702-6.457-1.702-6.457c-38.623-15.967-67.736,3.672-67.736,3.672v5.092c-3.28,1.371-5.753,3.018-7.026,4.97
			c0,0-24.272,36.414-31.304,61.328C27.778,213.004-6.072,352.9,0.954,406.561s88.159,67.075,109.236,24.915
			c21.083-42.161,35.135-93.27,35.135-93.27s8.305-6.07,10.221-6.07c0,0,35.771,29.706,74.419-2.559h103.214
			c38.647,32.259,74.419,2.559,74.419,2.559c1.915,0,10.221,6.07,10.221,6.07s14.051,51.108,35.135,93.27
			c21.083,42.16,102.21,28.745,109.235-24.915c7.026-53.66-26.83-193.557-33.855-218.472
			C521.307,163.175,497.029,126.761,497.029,126.761z M154.395,143.688c0-6.089,4.958-11.047,11.047-11.047
			s11.046,4.958,11.046,11.047v13.409c0,6.089-4.957,11.047-11.046,11.047s-11.047-4.958-11.047-11.047V143.688z M86.053,165.824
			c0.649-9.216,13.048-9.223,18.335-9.229c5.337,0.006,17.724,0.013,18.385,9.229c0.312,4.333-1.169,18.954-3.189,22.987
			c-1.701,3.415-9.633,9.303-13.182,11.823c-0.239,0.196-0.508,0.367-0.796,0.49c-0.385,0.153-0.79,0.232-1.187,0.232
			c-0.037,0-0.074,0-0.116,0c-0.398-0.013-0.802-0.104-1.175-0.275c-0.263-0.129-0.508-0.275-0.716-0.459
			c-3.562-2.527-11.463-8.396-13.164-11.812C87.228,184.784,85.741,170.164,86.053,165.824z M65.116,223.481
			c-9.217-0.655-9.223-13.048-9.223-18.342c0-5.337,0.006-17.724,9.229-18.385c0.446-0.03,0.991-0.049,1.591-0.049
			c5.104,0,17.644,1.371,21.396,3.237c3.238,1.616,8.727,8.855,11.806,13.171c0.141,0.159,0.263,0.343,0.367,0.532
			c0.282,0.532,0.404,1.132,0.361,1.707c-0.024,0.367-0.122,0.723-0.275,1.071c-0.122,0.263-0.281,0.502-0.465,0.716
			c-3.097,4.327-8.562,11.536-11.793,13.14c-3.727,1.873-16.273,3.237-21.383,3.237C66.114,223.53,65.575,223.512,65.116,223.481z
			 M122.779,244.411c-0.655,9.217-13.048,9.224-18.342,9.229l0,0h-0.018c-5.318-0.006-17.711-0.013-18.36-9.229
			c-0.312-4.333,1.168-18.959,3.188-22.986c1.622-3.237,8.855-8.728,13.164-11.806c0.141-0.122,0.288-0.227,0.453-0.318
			c0.202-0.122,0.417-0.214,0.637-0.281c0.777-0.257,1.64-0.178,2.38,0.208c0.233,0.129,0.441,0.275,0.63,0.447
			c3.599,2.563,11.396,8.365,13.085,11.744C121.604,225.458,123.085,240.085,122.779,244.411z M152.914,205.464
			c0.019,4.97,0.006,17.362-9.21,18.018c-0.453,0.03-0.991,0.049-1.597,0.049c-5.11,0-17.656-1.371-21.39-3.237
			c-3.623-1.812-10.19-10.876-11.817-13.183c-0.171-0.202-0.312-0.423-0.429-0.667c-0.049-0.104-0.092-0.202-0.128-0.312
			c-0.263-0.746-0.239-1.585,0.116-2.325c0.135-0.294,0.312-0.551,0.52-0.783c3.103-4.34,8.532-11.47,11.745-13.073
			c3.739-1.872,16.285-3.237,21.389-3.237c0.606,0,1.145,0.019,1.598,0.049c9.18,0.649,9.223,12.963,9.223,18.287
			C152.938,205.183,152.932,205.323,152.914,205.464z M186.831,316.358c-18.048,0-32.729-14.683-32.729-32.729
			c0-18.048,14.682-32.736,32.729-32.736s32.73,14.682,32.73,32.736C219.561,301.67,204.873,316.358,186.831,316.358z
			 M281.066,308.182c-18.721,0-33.954-15.227-33.954-33.953c0-18.728,15.232-33.954,33.954-33.954
			c18.721,0,33.954,15.227,33.954,33.954C315.021,292.955,299.787,308.182,281.066,308.182z M456.576,141.081
			c12.595,0,22.84,10.245,22.84,22.84c0,12.596-10.245,22.84-22.84,22.84c-12.596,0-22.84-10.244-22.84-22.84
			C433.736,151.326,443.98,141.081,456.576,141.081z M385.646,143.688c0-6.089,4.957-11.047,11.046-11.047
			c6.09,0,11.047,4.958,11.047,11.047v13.409c0,6.089-4.957,11.047-11.047,11.047c-6.089,0-11.046-4.958-11.046-11.047V143.688z
			 M370.431,316.358c-18.048,0-32.729-14.683-32.729-32.729c0-18.048,14.682-32.736,32.729-32.736s32.729,14.682,32.729,32.736
			C403.16,301.67,388.473,316.358,370.431,316.358z M417.334,225.99c-12.595,0-22.84-10.245-22.84-22.84s10.245-22.84,22.84-22.84
			c12.596,0,22.84,10.245,22.84,22.84S429.93,225.99,417.334,225.99z M456.576,265.231c-12.596,0-22.84-10.244-22.84-22.84
			c0-12.595,10.244-22.84,22.84-22.84c12.595,0,22.84,10.245,22.84,22.84C479.416,254.987,469.165,265.231,456.576,265.231z
			 M495.812,225.99c-12.596,0-22.84-10.245-22.84-22.84s10.244-22.84,22.84-22.84c12.595,0,22.84,10.245,22.84,22.84
			S508.406,225.99,495.812,225.99z"/>
		<circle cx="456.576" cy="163.915" r="16.72"/>
		<circle cx="417.334" cy="203.157" r="16.72"/>
		<path d="M190.858,130.225v80.857c0,5.361,4.357,9.719,9.718,9.719h160.98c5.355,0,9.719-4.357,9.719-9.719v-80.857
			c0-2.583-1.028-4.914-2.675-6.658H193.532C191.886,125.304,190.858,127.642,190.858,130.225z"/>
		<path d="M370.431,257.019c-14.67,0-26.609,11.94-26.609,26.616s11.939,26.609,26.609,26.609s26.609-11.934,26.609-26.609
			S385.101,257.019,370.431,257.019z"/>
		<path d="M186.831,257.019c-14.669,0-26.609,11.94-26.609,26.616s11.94,26.609,26.609,26.609c14.67,0,26.61-11.934,26.61-26.609
			S201.5,257.019,186.831,257.019z"/>
	</g>
</g>
<g>
</g>
<g>
</g>
<g>
</g>
<g>
</g>
<g>
</g>
<g>
</g>
<g>
</g>
<g>
</g>
<g>
</g>
<g>
</g>
<g>
</g>
<g>
</g>
<g>
</g>
<g>
</g>
<g>
</g>
</svg>
